<svg width="600" height="4400" 
	xmlns="http://www.w3.org/2000/svg" 
	xmlns:svg="http://www.w3.org/2000/svg">
	<g>
		<g>
			<!-- 速度标线 -->
			<line x1="85" y1="0" x2="100" y2="0" stroke-linecap="null" stroke-linejoin="null" stroke-dasharray="null" stroke-width="2" stroke="#ffffff" fill="none"/>
			<line x1="85" y1="40" x2="100" y2="40" stroke-linecap="null" stroke-linejoin="null" stroke-dasharray="null" stroke-width="2" stroke="#ffffff" fill="none"/>
			<line x1="85" y1="80" x2="100" y2="80" stroke-linecap="null" stroke-linejoin="null" stroke-dasharray="null" stroke-width="2" stroke="#ffffff" fill="none"/>
			<line x1="85" y1="120" x2="100" y2="120" stroke-linecap="null" stroke-linejoin="null" stroke-dasharray="null" stroke-width="2" stroke="#ffffff" fill="none"/>
			<line x1="85" y1="160" x2="100" y2="160" stroke-linecap="null" stroke-linejoin="null" stroke-dasharray="null" stroke-width="2" stroke="#ffffff" fill="none"/>
			<line x1="85" y1="200" x2="100" y2="200" stroke-linecap="null" stroke-linejoin="null" stroke-dasharray="null" stroke-width="2" stroke="#ffffff" fill="none"/>
			<line x1="85" y1="240" x2="100" y2="240" stroke-linecap="null" stroke-linejoin="null" stroke-dasharray="null" stroke-width="2" stroke="#ffffff" fill="none"/>
			<line x1="85" y1="280" x2="100" y2="280" stroke-linecap="null" stroke-linejoin="null" stroke-dasharray="null" stroke-width="2" stroke="#ffffff" fill="none"/>
			<line x1="85" y1="320" x2="100" y2="320" stroke-linecap="null" stroke-linejoin="null" stroke-dasharray="null" stroke-width="2" stroke="#ffffff" fill="none"/>
			<line x1="85" y1="360" x2="100" y2="360" stroke-linecap="null" stroke-linejoin="null" stroke-dasharray="null" stroke-width="2" stroke="#ffffff" fill="none"/>
			<line x1="85" y1="400" x2="100" y2="400" stroke-linecap="null" stroke-linejoin="null" stroke-dasharray="null" stroke-width="2" stroke="#ffffff" fill="none"/>
			<line x1="85" y1="440" x2="100" y2="440" stroke-linecap="null" stroke-linejoin="null" stroke-dasharray="null" stroke-width="2" stroke="#ffffff" fill="none"/>
			<line x1="85" y1="480" x2="100" y2="480" stroke-linecap="null" stroke-linejoin="null" stroke-dasharray="null" stroke-width="2" stroke="#ffffff" fill="none"/>
			<line x1="85" y1="520" x2="100" y2="520" stroke-linecap="null" stroke-linejoin="null" stroke-dasharray="null" stroke-width="2" stroke="#ffffff" fill="none"/>
			<line x1="85" y1="560" x2="100" y2="560" stroke-linecap="null" stroke-linejoin="null" stroke-dasharray="null" stroke-width="2" stroke="#ffffff" fill="none"/>
			<line x1="85" y1="600" x2="100" y2="600" stroke-linecap="null" stroke-linejoin="null" stroke-dasharray="null" stroke-width="2" stroke="#ffffff" fill="none"/>
			<line x1="85" y1="640" x2="100" y2="640" stroke-linecap="null" stroke-linejoin="null" stroke-dasharray="null" stroke-width="2" stroke="#ffffff" fill="none"/>
			<line x1="85" y1="680" x2="100" y2="680" stroke-linecap="null" stroke-linejoin="null" stroke-dasharray="null" stroke-width="2" stroke="#ffffff" fill="none"/>
			<line x1="85" y1="720" x2="100" y2="720" stroke-linecap="null" stroke-linejoin="null" stroke-dasharray="null" stroke-width="2" stroke="#ffffff" fill="none"/>
			<line x1="85" y1="760" x2="100" y2="760" stroke-linecap="null" stroke-linejoin="null" stroke-dasharray="null" stroke-width="2" stroke="#ffffff" fill="none"/>
			<line x1="85" y1="800" x2="100" y2="800" stroke-linecap="null" stroke-linejoin="null" stroke-dasharray="null" stroke-width="2" stroke="#ffffff" fill="none"/>
			<line x1="85" y1="840" x2="100" y2="840" stroke-linecap="null" stroke-linejoin="null" stroke-dasharray="null" stroke-width="2" stroke="#ffffff" fill="none"/>
			<line x1="85" y1="880" x2="100" y2="880" stroke-linecap="null" stroke-linejoin="null" stroke-dasharray="null" stroke-width="2" stroke="#ffffff" fill="none"/>
			<line x1="85" y1="920" x2="100" y2="920" stroke-linecap="null" stroke-linejoin="null" stroke-dasharray="null" stroke-width="2" stroke="#ffffff" fill="none"/>
			<line x1="85" y1="960" x2="100" y2="960" stroke-linecap="null" stroke-linejoin="null" stroke-dasharray="null" stroke-width="2" stroke="#ffffff" fill="none"/>
			<line x1="85" y1="1000" x2="100" y2="1000" stroke-linecap="null" stroke-linejoin="null" stroke-dasharray="null" stroke-width="2" stroke="#ffffff" fill="none"/>
			<line x1="85" y1="1040" x2="100" y2="1040" stroke-linecap="null" stroke-linejoin="null" stroke-dasharray="null" stroke-width="2" stroke="#ffffff" fill="none"/>
			<line x1="85" y1="1080" x2="100" y2="1080" stroke-linecap="null" stroke-linejoin="null" stroke-dasharray="null" stroke-width="2" stroke="#ffffff" fill="none"/>
			<line x1="85" y1="1120" x2="100" y2="1120" stroke-linecap="null" stroke-linejoin="null" stroke-dasharray="null" stroke-width="2" stroke="#ffffff" fill="none"/>
			<line x1="85" y1="1160" x2="100" y2="1160" stroke-linecap="null" stroke-linejoin="null" stroke-dasharray="null" stroke-width="2" stroke="#ffffff" fill="none"/>
			<line x1="85" y1="1200" x2="100" y2="1200" stroke-linecap="null" stroke-linejoin="null" stroke-dasharray="null" stroke-width="2" stroke="#ffffff" fill="none"/>
			<line x1="85" y1="1240" x2="100" y2="1240" stroke-linecap="null" stroke-linejoin="null" stroke-dasharray="null" stroke-width="2" stroke="#ffffff" fill="none"/>
			<line x1="85" y1="1280" x2="100" y2="1280" stroke-linecap="null" stroke-linejoin="null" stroke-dasharray="null" stroke-width="2" stroke="#ffffff" fill="none"/>
			<line x1="85" y1="1320" x2="100" y2="1320" stroke-linecap="null" stroke-linejoin="null" stroke-dasharray="null" stroke-width="2" stroke="#ffffff" fill="none"/>
			<line x1="85" y1="1360" x2="100" y2="1360" stroke-linecap="null" stroke-linejoin="null" stroke-dasharray="null" stroke-width="2" stroke="#ffffff" fill="none"/>
			<line x1="85" y1="1400" x2="100" y2="1400" stroke-linecap="null" stroke-linejoin="null" stroke-dasharray="null" stroke-width="2" stroke="#ffffff" fill="none"/>
			<line x1="85" y1="1440" x2="100" y2="1440" stroke-linecap="null" stroke-linejoin="null" stroke-dasharray="null" stroke-width="2" stroke="#ffffff" fill="none"/>
			<line x1="85" y1="1480" x2="100" y2="1480" stroke-linecap="null" stroke-linejoin="null" stroke-dasharray="null" stroke-width="2" stroke="#ffffff" fill="none"/>
			<line x1="85" y1="1520" x2="100" y2="1520" stroke-linecap="null" stroke-linejoin="null" stroke-dasharray="null" stroke-width="2" stroke="#ffffff" fill="none"/>
			<line x1="85" y1="1560" x2="100" y2="1560" stroke-linecap="null" stroke-linejoin="null" stroke-dasharray="null" stroke-width="2" stroke="#ffffff" fill="none"/>
			<line x1="85" y1="1600" x2="100" y2="1600" stroke-linecap="null" stroke-linejoin="null" stroke-dasharray="null" stroke-width="2" stroke="#ffffff" fill="none"/>
			<line x1="85" y1="1640" x2="100" y2="1640" stroke-linecap="null" stroke-linejoin="null" stroke-dasharray="null" stroke-width="2" stroke="#ffffff" fill="none"/>
			<line x1="85" y1="1680" x2="100" y2="1680" stroke-linecap="null" stroke-linejoin="null" stroke-dasharray="null" stroke-width="2" stroke="#ffffff" fill="none"/>
			<line x1="85" y1="1720" x2="100" y2="1720" stroke-linecap="null" stroke-linejoin="null" stroke-dasharray="null" stroke-width="2" stroke="#ffffff" fill="none"/>
			<line x1="85" y1="1760" x2="100" y2="1760" stroke-linecap="null" stroke-linejoin="null" stroke-dasharray="null" stroke-width="2" stroke="#ffffff" fill="none"/>
			<line x1="85" y1="1800" x2="100" y2="1800" stroke-linecap="null" stroke-linejoin="null" stroke-dasharray="null" stroke-width="2" stroke="#ffffff" fill="none"/>
			<line x1="85" y1="1840" x2="100" y2="1840" stroke-linecap="null" stroke-linejoin="null" stroke-dasharray="null" stroke-width="2" stroke="#ffffff" fill="none"/>
			<line x1="85" y1="1880" x2="100" y2="1880" stroke-linecap="null" stroke-linejoin="null" stroke-dasharray="null" stroke-width="2" stroke="#ffffff" fill="none"/>
			<line x1="85" y1="1920" x2="100" y2="1920" stroke-linecap="null" stroke-linejoin="null" stroke-dasharray="null" stroke-width="2" stroke="#ffffff" fill="none"/>
			<line x1="85" y1="1960" x2="100" y2="1960" stroke-linecap="null" stroke-linejoin="null" stroke-dasharray="null" stroke-width="2" stroke="#ffffff" fill="none"/>
			<line x1="85" y1="2000" x2="100" y2="2000" stroke-linecap="null" stroke-linejoin="null" stroke-dasharray="null" stroke-width="2" stroke="#ffffff" fill="none"/>
			<line x1="85" y1="2040" x2="100" y2="2040" stroke-linecap="null" stroke-linejoin="null" stroke-dasharray="null" stroke-width="2" stroke="#ffffff" fill="none"/>
			<line x1="85" y1="2080" x2="100" y2="2080" stroke-linecap="null" stroke-linejoin="null" stroke-dasharray="null" stroke-width="2" stroke="#ffffff" fill="none"/>
			<line x1="85" y1="2120" x2="100" y2="2120" stroke-linecap="null" stroke-linejoin="null" stroke-dasharray="null" stroke-width="2" stroke="#ffffff" fill="none"/>
			<line x1="85" y1="2160" x2="100" y2="2160" stroke-linecap="null" stroke-linejoin="null" stroke-dasharray="null" stroke-width="2" stroke="#ffffff" fill="none"/>
			<line x1="85" y1="2200" x2="100" y2="2200" stroke-linecap="null" stroke-linejoin="null" stroke-dasharray="null" stroke-width="2" stroke="#ffffff" fill="none"/>
			<line x1="85" y1="2240" x2="100" y2="2240" stroke-linecap="null" stroke-linejoin="null" stroke-dasharray="null" stroke-width="2" stroke="#ffffff" fill="none"/>
			<line x1="85" y1="2280" x2="100" y2="2280" stroke-linecap="null" stroke-linejoin="null" stroke-dasharray="null" stroke-width="2" stroke="#ffffff" fill="none"/>
			<line x1="85" y1="2320" x2="100" y2="2320" stroke-linecap="null" stroke-linejoin="null" stroke-dasharray="null" stroke-width="2" stroke="#ffffff" fill="none"/>
			<line x1="85" y1="2360" x2="100" y2="2360" stroke-linecap="null" stroke-linejoin="null" stroke-dasharray="null" stroke-width="2" stroke="#ffffff" fill="none"/>
			<line x1="85" y1="2400" x2="100" y2="2400" stroke-linecap="null" stroke-linejoin="null" stroke-dasharray="null" stroke-width="2" stroke="#ffffff" fill="none"/>
			<line x1="85" y1="2440" x2="100" y2="2440" stroke-linecap="null" stroke-linejoin="null" stroke-dasharray="null" stroke-width="2" stroke="#ffffff" fill="none"/>
			<line x1="85" y1="2480" x2="100" y2="2480" stroke-linecap="null" stroke-linejoin="null" stroke-dasharray="null" stroke-width="2" stroke="#ffffff" fill="none"/>
			<line x1="85" y1="2520" x2="100" y2="2520" stroke-linecap="null" stroke-linejoin="null" stroke-dasharray="null" stroke-width="2" stroke="#ffffff" fill="none"/>
			<line x1="85" y1="2560" x2="100" y2="2560" stroke-linecap="null" stroke-linejoin="null" stroke-dasharray="null" stroke-width="2" stroke="#ffffff" fill="none"/>
			<line x1="85" y1="2600" x2="100" y2="2600" stroke-linecap="null" stroke-linejoin="null" stroke-dasharray="null" stroke-width="2" stroke="#ffffff" fill="none"/>
			<line x1="85" y1="2640" x2="100" y2="2640" stroke-linecap="null" stroke-linejoin="null" stroke-dasharray="null" stroke-width="2" stroke="#ffffff" fill="none"/>
			<line x1="85" y1="2680" x2="100" y2="2680" stroke-linecap="null" stroke-linejoin="null" stroke-dasharray="null" stroke-width="2" stroke="#ffffff" fill="none"/>
			<line x1="85" y1="2720" x2="100" y2="2720" stroke-linecap="null" stroke-linejoin="null" stroke-dasharray="null" stroke-width="2" stroke="#ffffff" fill="none"/>
			<line x1="85" y1="2760" x2="100" y2="2760" stroke-linecap="null" stroke-linejoin="null" stroke-dasharray="null" stroke-width="2" stroke="#ffffff" fill="none"/>
			<line x1="85" y1="2800" x2="100" y2="2800" stroke-linecap="null" stroke-linejoin="null" stroke-dasharray="null" stroke-width="2" stroke="#ffffff" fill="none"/>
			<line x1="85" y1="2840" x2="100" y2="2840" stroke-linecap="null" stroke-linejoin="null" stroke-dasharray="null" stroke-width="2" stroke="#ffffff" fill="none"/>
			<line x1="85" y1="2880" x2="100" y2="2880" stroke-linecap="null" stroke-linejoin="null" stroke-dasharray="null" stroke-width="2" stroke="#ffffff" fill="none"/>
			<line x1="85" y1="2920" x2="100" y2="2920" stroke-linecap="null" stroke-linejoin="null" stroke-dasharray="null" stroke-width="2" stroke="#ffffff" fill="none"/>
			<line x1="85" y1="2960" x2="100" y2="2960" stroke-linecap="null" stroke-linejoin="null" stroke-dasharray="null" stroke-width="2" stroke="#ffffff" fill="none"/>
			<line x1="85" y1="3000" x2="100" y2="3000" stroke-linecap="null" stroke-linejoin="null" stroke-dasharray="null" stroke-width="2" stroke="#ffffff" fill="none"/>
			<line x1="85" y1="3040" x2="100" y2="3040" stroke-linecap="null" stroke-linejoin="null" stroke-dasharray="null" stroke-width="2" stroke="#ffffff" fill="none"/>
			<line x1="85" y1="3080" x2="100" y2="3080" stroke-linecap="null" stroke-linejoin="null" stroke-dasharray="null" stroke-width="2" stroke="#ffffff" fill="none"/>
			<line x1="85" y1="3120" x2="100" y2="3120" stroke-linecap="null" stroke-linejoin="null" stroke-dasharray="null" stroke-width="2" stroke="#ffffff" fill="none"/>
			<line x1="85" y1="3160" x2="100" y2="3160" stroke-linecap="null" stroke-linejoin="null" stroke-dasharray="null" stroke-width="2" stroke="#ffffff" fill="none"/>
			<line x1="85" y1="3200" x2="100" y2="3200" stroke-linecap="null" stroke-linejoin="null" stroke-dasharray="null" stroke-width="2" stroke="#ffffff" fill="none"/>
			<line x1="85" y1="3240" x2="100" y2="3240" stroke-linecap="null" stroke-linejoin="null" stroke-dasharray="null" stroke-width="2" stroke="#ffffff" fill="none"/>
			<line x1="85" y1="3280" x2="100" y2="3280" stroke-linecap="null" stroke-linejoin="null" stroke-dasharray="null" stroke-width="2" stroke="#ffffff" fill="none"/>
			<line x1="85" y1="3320" x2="100" y2="3320" stroke-linecap="null" stroke-linejoin="null" stroke-dasharray="null" stroke-width="2" stroke="#ffffff" fill="none"/>
			<line x1="85" y1="3360" x2="100" y2="3360" stroke-linecap="null" stroke-linejoin="null" stroke-dasharray="null" stroke-width="2" stroke="#ffffff" fill="none"/>
			<line x1="85" y1="3400" x2="100" y2="3400" stroke-linecap="null" stroke-linejoin="null" stroke-dasharray="null" stroke-width="2" stroke="#ffffff" fill="none"/>
			<line x1="85" y1="3440" x2="100" y2="3440" stroke-linecap="null" stroke-linejoin="null" stroke-dasharray="null" stroke-width="2" stroke="#ffffff" fill="none"/>
			<line x1="85" y1="3480" x2="100" y2="3480" stroke-linecap="null" stroke-linejoin="null" stroke-dasharray="null" stroke-width="2" stroke="#ffffff" fill="none"/>
			<line x1="85" y1="3520" x2="100" y2="3520" stroke-linecap="null" stroke-linejoin="null" stroke-dasharray="null" stroke-width="2" stroke="#ffffff" fill="none"/>
			<line x1="85" y1="3560" x2="100" y2="3560" stroke-linecap="null" stroke-linejoin="null" stroke-dasharray="null" stroke-width="2" stroke="#ffffff" fill="none"/>
			<line x1="85" y1="3600" x2="100" y2="3600" stroke-linecap="null" stroke-linejoin="null" stroke-dasharray="null" stroke-width="2" stroke="#ffffff" fill="none"/>
			<line x1="85" y1="3640" x2="100" y2="3640" stroke-linecap="null" stroke-linejoin="null" stroke-dasharray="null" stroke-width="2" stroke="#ffffff" fill="none"/>
			<line x1="85" y1="3680" x2="100" y2="3680" stroke-linecap="null" stroke-linejoin="null" stroke-dasharray="null" stroke-width="2" stroke="#ffffff" fill="none"/>
			<line x1="85" y1="3720" x2="100" y2="3720" stroke-linecap="null" stroke-linejoin="null" stroke-dasharray="null" stroke-width="2" stroke="#ffffff" fill="none"/>
			<line x1="85" y1="3760" x2="100" y2="3760" stroke-linecap="null" stroke-linejoin="null" stroke-dasharray="null" stroke-width="2" stroke="#ffffff" fill="none"/>
			<line x1="85" y1="3800" x2="100" y2="3800" stroke-linecap="null" stroke-linejoin="null" stroke-dasharray="null" stroke-width="2" stroke="#ffffff" fill="none"/>
			<line x1="85" y1="3840" x2="100" y2="3840" stroke-linecap="null" stroke-linejoin="null" stroke-dasharray="null" stroke-width="2" stroke="#ffffff" fill="none"/>
			<line x1="85" y1="3880" x2="100" y2="3880" stroke-linecap="null" stroke-linejoin="null" stroke-dasharray="null" stroke-width="2" stroke="#ffffff" fill="none"/>
			<line x1="85" y1="3920" x2="100" y2="3920" stroke-linecap="null" stroke-linejoin="null" stroke-dasharray="null" stroke-width="2" stroke="#ffffff" fill="none"/>
			<line x1="85" y1="3960" x2="100" y2="3960" stroke-linecap="null" stroke-linejoin="null" stroke-dasharray="null" stroke-width="2" stroke="#ffffff" fill="none"/>
			<line x1="85" y1="4000" x2="100" y2="4000" stroke-linecap="null" stroke-linejoin="null" stroke-dasharray="null" stroke-width="2" stroke="#ffffff" fill="none"/>
			<line x1="85" y1="4040" x2="100" y2="4040" stroke-linecap="null" stroke-linejoin="null" stroke-dasharray="null" stroke-width="2" stroke="#ffffff" fill="none"/>
			<line x1="85" y1="4080" x2="100" y2="4080" stroke-linecap="null" stroke-linejoin="null" stroke-dasharray="null" stroke-width="2" stroke="#ffffff" fill="none"/>
			<line x1="85" y1="4120" x2="100" y2="4120" stroke-linecap="null" stroke-linejoin="null" stroke-dasharray="null" stroke-width="2" stroke="#ffffff" fill="none"/>
			<line x1="85" y1="4160" x2="100" y2="4160" stroke-linecap="null" stroke-linejoin="null" stroke-dasharray="null" stroke-width="2" stroke="#ffffff" fill="none"/>
			<line x1="85" y1="4200" x2="100" y2="4200" stroke-linecap="null" stroke-linejoin="null" stroke-dasharray="null" stroke-width="2" stroke="#ffffff" fill="none"/>
			<line x1="85" y1="4240" x2="100" y2="4240" stroke-linecap="null" stroke-linejoin="null" stroke-dasharray="null" stroke-width="2" stroke="#ffffff" fill="none"/>
			<line x1="85" y1="4280" x2="100" y2="4280" stroke-linecap="null" stroke-linejoin="null" stroke-dasharray="null" stroke-width="2" stroke="#ffffff" fill="none"/>
			<line x1="85" y1="4320" x2="100" y2="4320" stroke-linecap="null" stroke-linejoin="null" stroke-dasharray="null" stroke-width="2" stroke="#ffffff" fill="none"/>
		</g>

		<g>
			<!-- 速度字符 -->
			<text x="60" y="7.5" fill="#ffffff" font-family="arial" font-size="24" text-anchor="middle">1080</text>
			<text x="60" y="87.5" fill="#ffffff" font-family="arial" font-size="24" text-anchor="middle">1060</text>
			<text x="60" y="167.5" fill="#ffffff" font-family="arial" font-size="24" text-anchor="middle">1040</text>
			<text x="60" y="247.5" fill="#ffffff" font-family="arial" font-size="24" text-anchor="middle">1020</text>
			<text x="60" y="327.5" fill="#ffffff" font-family="arial" font-size="24" text-anchor="middle">1000</text>
			<text x="60" y="407.5" fill="#ffffff" font-family="arial" font-size="24" text-anchor="middle">980</text>
			<text x="60" y="487.5" fill="#ffffff" font-family="arial" font-size="24" text-anchor="middle">960</text>
			<text x="60" y="567.5" fill="#ffffff" font-family="arial" font-size="24" text-anchor="middle">940</text>
			<text x="60" y="647.5" fill="#ffffff" font-family="arial" font-size="24" text-anchor="middle">920</text>
			<text x="60" y="727.5" fill="#ffffff" font-family="arial" font-size="24" text-anchor="middle">900</text>
			<text x="60" y="807.5" fill="#ffffff" font-family="arial" font-size="24" text-anchor="middle">880</text>
			<text x="60" y="887.5" fill="#ffffff" font-family="arial" font-size="24" text-anchor="middle">860</text>
			<text x="60" y="967.5" fill="#ffffff" font-family="arial" font-size="24" text-anchor="middle">840</text>
			<text x="60" y="1047.5" fill="#ffffff" font-family="arial" font-size="24" text-anchor="middle">820</text>
			<text x="60" y="1127.5" fill="#ffffff" font-family="arial" font-size="24" text-anchor="middle">800</text>
			<text x="60" y="1207.5" fill="#ffffff" font-family="arial" font-size="24" text-anchor="middle">780</text>
			<text x="60" y="1287.5" fill="#ffffff" font-family="arial" font-size="24" text-anchor="middle">760</text>
			<text x="60" y="1367.5" fill="#ffffff" font-family="arial" font-size="24" text-anchor="middle">740</text>
			<text x="60" y="1447.5" fill="#ffffff" font-family="arial" font-size="24" text-anchor="middle">720</text>
			<text x="60" y="1527.5" fill="#ffffff" font-family="arial" font-size="24" text-anchor="middle">700</text>
			<text x="60" y="1607.5" fill="#ffffff" font-family="arial" font-size="24" text-anchor="middle">680</text>
			<text x="60" y="1687.5" fill="#ffffff" font-family="arial" font-size="24" text-anchor="middle">660</text>
			<text x="60" y="1767.5" fill="#ffffff" font-family="arial" font-size="24" text-anchor="middle">640</text>
			<text x="60" y="1847.5" fill="#ffffff" font-family="arial" font-size="24" text-anchor="middle">620</text>
			<text x="60" y="1927.5" fill="#ffffff" font-family="arial" font-size="24" text-anchor="middle">600</text>
			<text x="60" y="2007.5" fill="#ffffff" font-family="arial" font-size="24" text-anchor="middle">580</text>
			<text x="60" y="2087.5" fill="#ffffff" font-family="arial" font-size="24" text-anchor="middle">560</text>
			<text x="60" y="2167.5" fill="#ffffff" font-family="arial" font-size="24" text-anchor="middle">540</text>
			<text x="60" y="2247.5" fill="#ffffff" font-family="arial" font-size="24" text-anchor="middle">520</text>
			<text x="60" y="2327.5" fill="#ffffff" font-family="arial" font-size="24" text-anchor="middle">500</text>
			<text x="60" y="2407.5" fill="#ffffff" font-family="arial" font-size="24" text-anchor="middle">480</text>
			<text x="60" y="2487.5" fill="#ffffff" font-family="arial" font-size="24" text-anchor="middle">460</text>
			<text x="60" y="2567.5" fill="#ffffff" font-family="arial" font-size="24" text-anchor="middle">440</text>
			<text x="60" y="2647.5" fill="#ffffff" font-family="arial" font-size="24" text-anchor="middle">420</text>
			<text x="60" y="2727.5" fill="#ffffff" font-family="arial" font-size="24" text-anchor="middle">400</text>
			<text x="60" y="2807.5" fill="#ffffff" font-family="arial" font-size="24" text-anchor="middle">380</text>
			<text x="60" y="2887.5" fill="#ffffff" font-family="arial" font-size="24" text-anchor="middle">360</text>
			<text x="60" y="2967.5" fill="#ffffff" font-family="arial" font-size="24" text-anchor="middle">340</text>
			<text x="60" y="3047.5" fill="#ffffff" font-family="arial" font-size="24" text-anchor="middle">320</text>
			<text x="60" y="3127.5" fill="#ffffff" font-family="arial" font-size="24" text-anchor="middle">300</text>
			<text x="60" y="3207.5" fill="#ffffff" font-family="arial" font-size="24" text-anchor="middle">280</text>
			<text x="60" y="3287.5" fill="#ffffff" font-family="arial" font-size="24" text-anchor="middle">260</text>
			<text x="60" y="3367.5" fill="#ffffff" font-family="arial" font-size="24" text-anchor="middle">240</text>
			<text x="60" y="3447.5" fill="#ffffff" font-family="arial" font-size="24" text-anchor="middle">220</text>
			<text x="60" y="3527.5" fill="#ffffff" font-family="arial" font-size="24" text-anchor="middle">200</text>
			<text x="60" y="3607.5" fill="#ffffff" font-family="arial" font-size="24" text-anchor="middle">180</text>
			<text x="60" y="3687.5" fill="#ffffff" font-family="arial" font-size="24" text-anchor="middle">160</text>
			<text x="60" y="3767.5" fill="#ffffff" font-family="arial" font-size="24" text-anchor="middle">140</text>
			<text x="60" y="3847.5" fill="#ffffff" font-family="arial" font-size="24" text-anchor="middle">120</text>
			<text x="60" y="3927.5" fill="#ffffff" font-family="arial" font-size="24" text-anchor="middle">100</text>
			<text x="60" y="4007.5" fill="#ffffff" font-family="arial" font-size="24" text-anchor="middle">80</text>
			<text x="60" y="4087.5" fill="#ffffff" font-family="arial" font-size="24" text-anchor="middle">60</text>
			<text x="60" y="4167.5" fill="#ffffff" font-family="arial" font-size="24" text-anchor="middle">40</text>
			<text x="60" y="4247.5" fill="#ffffff" font-family="arial" font-size="24" text-anchor="middle">20</text>
			<text x="60" y="4327.5" fill="#ffffff" font-family="arial" font-size="24" text-anchor="middle">0</text>
		</g>

		<g>
			<!-- 超速红黑标志 -->
			<rect x="100" y="0" width="10" height="10" stroke="none" fill="#ff0000"></rect>
			<rect x="100" y="20" width="10" height="10" stroke="none" fill="#ff0000"></rect>
			<rect x="100" y="40" width="10" height="10" stroke="none" fill="#ff0000"></rect>
			<rect x="100" y="60" width="10" height="10" stroke="none" fill="#ff0000"></rect>
			<rect x="100" y="80" width="10" height="10" stroke="none" fill="#ff0000"></rect>
			<rect x="100" y="100" width="10" height="10" stroke="none" fill="#ff0000"></rect>
			<rect x="100" y="120" width="10" height="10" stroke="none" fill="#ff0000"></rect>
			<rect x="100" y="140" width="10" height="10" stroke="none" fill="#ff0000"></rect>
			<rect x="100" y="160" width="10" height="10" stroke="none" fill="#ff0000"></rect>
			<rect x="100" y="180" width="10" height="10" stroke="none" fill="#ff0000"></rect>
			<rect x="100" y="200" width="10" height="10" stroke="none" fill="#ff0000"></rect>
			<rect x="100" y="220" width="10" height="10" stroke="none" fill="#ff0000"></rect>
			<rect x="100" y="240" width="10" height="10" stroke="none" fill="#ff0000"></rect>
			<rect x="100" y="260" width="10" height="10" stroke="none" fill="#ff0000"></rect>
			<rect x="100" y="280" width="10" height="10" stroke="none" fill="#ff0000"></rect>
			<rect x="100" y="300" width="10" height="10" stroke="none" fill="#ff0000"></rect>
			<rect x="100" y="320" width="10" height="10" stroke="none" fill="#ff0000"></rect>
			<rect x="100" y="340" width="10" height="10" stroke="none" fill="#ff0000"></rect>
			<rect x="100" y="360" width="10" height="10" stroke="none" fill="#ff0000"></rect>
			<rect x="100" y="380" width="10" height="10" stroke="none" fill="#ff0000"></rect>
			<rect x="100" y="400" width="10" height="10" stroke="none" fill="#ff0000"></rect>
			<rect x="100" y="420" width="10" height="10" stroke="none" fill="#ff0000"></rect>
			<rect x="100" y="440" width="10" height="10" stroke="none" fill="#ff0000"></rect>
			<rect x="100" y="460" width="10" height="10" stroke="none" fill="#ff0000"></rect>
			<rect x="100" y="480" width="10" height="10" stroke="none" fill="#ff0000"></rect>
			<rect x="100" y="500" width="10" height="10" stroke="none" fill="#ff0000"></rect>
			<rect x="100" y="520" width="10" height="10" stroke="none" fill="#ff0000"></rect>
			<rect x="100" y="540" width="10" height="10" stroke="none" fill="#ff0000"></rect>
			<rect x="100" y="560" width="10" height="10" stroke="none" fill="#ff0000"></rect>
			<rect x="100" y="580" width="10" height="10" stroke="none" fill="#ff0000"></rect>
			<rect x="100" y="600" width="10" height="10" stroke="none" fill="#ff0000"></rect>
			<rect x="100" y="620" width="10" height="10" stroke="none" fill="#ff0000"></rect>
			<rect x="100" y="640" width="10" height="10" stroke="none" fill="#ff0000"></rect>
			<rect x="100" y="660" width="10" height="10" stroke="none" fill="#ff0000"></rect>
			<rect x="100" y="680" width="10" height="10" stroke="none" fill="#ff0000"></rect>
			<rect x="100" y="700" width="10" height="10" stroke="none" fill="#ff0000"></rect>
			<rect x="100" y="720" width="10" height="10" stroke="none" fill="#ff0000"></rect>
			<rect x="100" y="740" width="10" height="10" stroke="none" fill="#ff0000"></rect>
			<rect x="100" y="760" width="10" height="10" stroke="none" fill="#ff0000"></rect>
			<rect x="100" y="780" width="10" height="10" stroke="none" fill="#ff0000"></rect>
			<rect x="100" y="800" width="10" height="10" stroke="none" fill="#ff0000"></rect>
			<rect x="100" y="820" width="10" height="10" stroke="none" fill="#ff0000"></rect>
			<rect x="100" y="840" width="10" height="10" stroke="none" fill="#ff0000"></rect>
			<rect x="100" y="860" width="10" height="10" stroke="none" fill="#ff0000"></rect>
			<rect x="100" y="880" width="10" height="10" stroke="none" fill="#ff0000"></rect>
			<rect x="100" y="900" width="10" height="10" stroke="none" fill="#ff0000"></rect>
			<rect x="100" y="920" width="10" height="10" stroke="none" fill="#ff0000"></rect>
			<rect x="100" y="940" width="10" height="10" stroke="none" fill="#ff0000"></rect>
			<rect x="100" y="960" width="10" height="10" stroke="none" fill="#ff0000"></rect>
			<rect x="100" y="980" width="10" height="10" stroke="none" fill="#ff0000"></rect>
			<rect x="100" y="1000" width="10" height="10" stroke="none" fill="#ff0000"></rect>
			<rect x="100" y="1020" width="10" height="10" stroke="none" fill="#ff0000"></rect>
			<rect x="100" y="1040" width="10" height="10" stroke="none" fill="#ff0000"></rect>
			<rect x="100" y="1060" width="10" height="10" stroke="none" fill="#ff0000"></rect>
			<rect x="100" y="1080" width="10" height="10" stroke="none" fill="#ff0000"></rect>
			<rect x="100" y="1100" width="10" height="10" stroke="none" fill="#ff0000"></rect>
			<rect x="100" y="1120" width="10" height="10" stroke="none" fill="#ff0000"></rect>
			<rect x="100" y="1140" width="10" height="10" stroke="none" fill="#ff0000"></rect>
			<rect x="100" y="1160" width="10" height="10" stroke="none" fill="#ff0000"></rect>
			<rect x="100" y="1180" width="10" height="10" stroke="none" fill="#ff0000"></rect>
			<rect x="100" y="1200" width="10" height="10" stroke="none" fill="#ff0000"></rect>
			<rect x="100" y="1220" width="10" height="10" stroke="none" fill="#ff0000"></rect>
			<rect x="100" y="1240" width="10" height="10" stroke="none" fill="#ff0000"></rect>
			<rect x="100" y="1260" width="10" height="10" stroke="none" fill="#ff0000"></rect>
			<rect x="100" y="1280" width="10" height="10" stroke="none" fill="#ff0000"></rect>
			<rect x="100" y="1300" width="10" height="10" stroke="none" fill="#ff0000"></rect>
			<rect x="100" y="1320" width="10" height="10" stroke="none" fill="#ff0000"></rect>
			<rect x="100" y="1340" width="10" height="10" stroke="none" fill="#ff0000"></rect>
			<rect x="100" y="1360" width="10" height="10" stroke="none" fill="#ff0000"></rect>
			<rect x="100" y="1380" width="10" height="10" stroke="none" fill="#ff0000"></rect>
			<rect x="100" y="1400" width="10" height="10" stroke="none" fill="#ff0000"></rect>
			<rect x="100" y="1420" width="10" height="10" stroke="none" fill="#ff0000"></rect>
			<rect x="100" y="1440" width="10" height="10" stroke="none" fill="#ff0000"></rect>
			<rect x="100" y="1460" width="10" height="10" stroke="none" fill="#ff0000"></rect>
			<rect x="100" y="1480" width="10" height="10" stroke="none" fill="#ff0000"></rect>
			<rect x="100" y="1500" width="10" height="10" stroke="none" fill="#ff0000"></rect>
			<rect x="100" y="1520" width="10" height="10" stroke="none" fill="#ff0000"></rect>
			<rect x="100" y="1540" width="10" height="10" stroke="none" fill="#ff0000"></rect>
			<rect x="100" y="1560" width="10" height="10" stroke="none" fill="#ff0000"></rect>
			<rect x="100" y="1580" width="10" height="10" stroke="none" fill="#ff0000"></rect>
			<rect x="100" y="1600" width="10" height="10" stroke="none" fill="#ff0000"></rect>
			<rect x="100" y="1620" width="10" height="10" stroke="none" fill="#ff0000"></rect>
			<rect x="100" y="1640" width="10" height="10" stroke="none" fill="#ff0000"></rect>
			<rect x="100" y="1660" width="10" height="10" stroke="none" fill="#ff0000"></rect>
			<rect x="100" y="1680" width="10" height="10" stroke="none" fill="#ff0000"></rect>
			<rect x="100" y="1700" width="10" height="10" stroke="none" fill="#ff0000"></rect>
			<rect x="100" y="1720" width="10" height="10" stroke="none" fill="#ff0000"></rect>
			<rect x="100" y="1740" width="10" height="10" stroke="none" fill="#ff0000"></rect>
			<rect x="100" y="1760" width="10" height="10" stroke="none" fill="#ff0000"></rect>
			<rect x="100" y="1780" width="10" height="10" stroke="none" fill="#ff0000"></rect>
			<rect x="100" y="1800" width="10" height="10" stroke="none" fill="#ff0000"></rect>
			<rect x="100" y="1820" width="10" height="10" stroke="none" fill="#ff0000"></rect>
			<rect x="100" y="1840" width="10" height="10" stroke="none" fill="#ff0000"></rect>
			<rect x="100" y="1860" width="10" height="10" stroke="none" fill="#ff0000"></rect>
			<rect x="100" y="1880" width="10" height="10" stroke="none" fill="#ff0000"></rect>
			<rect x="100" y="1900" width="10" height="10" stroke="none" fill="#ff0000"></rect>
			<rect x="100" y="1920" width="10" height="10" stroke="none" fill="#ff0000"></rect>
			<rect x="100" y="1940" width="10" height="10" stroke="none" fill="#ff0000"></rect>
			<rect x="100" y="1960" width="10" height="10" stroke="none" fill="#ff0000"></rect>
			<rect x="100" y="1980" width="10" height="10" stroke="none" fill="#ff0000"></rect>
			<rect x="100" y="2000" width="10" height="10" stroke="none" fill="#ff0000"></rect>
			<rect x="100" y="2020" width="10" height="10" stroke="none" fill="#ff0000"></rect>
			<rect x="100" y="2040" width="10" height="10" stroke="none" fill="#ff0000"></rect>
			<rect x="100" y="2060" width="10" height="10" stroke="none" fill="#ff0000"></rect>
			<rect x="100" y="2080" width="10" height="10" stroke="none" fill="#ff0000"></rect>
			<rect x="100" y="2100" width="10" height="10" stroke="none" fill="#ff0000"></rect>
			<rect x="100" y="2120" width="10" height="10" stroke="none" fill="#ff0000"></rect>
			<rect x="100" y="2140" width="10" height="10" stroke="none" fill="#ff0000"></rect>
			<rect x="100" y="2160" width="10" height="10" stroke="none" fill="#ff0000"></rect>
			<rect x="100" y="2180" width="10" height="10" stroke="none" fill="#ff0000"></rect>
			<rect x="100" y="2200" width="10" height="10" stroke="none" fill="#ff0000"></rect>
			<rect x="100" y="2220" width="10" height="10" stroke="none" fill="#ff0000"></rect>
			<rect x="100" y="2240" width="10" height="10" stroke="none" fill="#ff0000"></rect>
			<rect x="100" y="2260" width="10" height="10" stroke="none" fill="#ff0000"></rect>
			<rect x="100" y="2280" width="10" height="10" stroke="none" fill="#ff0000"></rect>
			<rect x="100" y="2300" width="10" height="10" stroke="none" fill="#ff0000"></rect>
			<rect x="100" y="2320" width="10" height="10" stroke="none" fill="#ff0000"></rect>
			<rect x="100" y="2340" width="10" height="10" stroke="none" fill="#ff0000"></rect>
			<rect x="100" y="2360" width="10" height="10" stroke="none" fill="#ff0000"></rect>
			<rect x="100" y="2380" width="10" height="10" stroke="none" fill="#ff0000"></rect>
			<rect x="100" y="2400" width="10" height="10" stroke="none" fill="#ff0000"></rect>
			<rect x="100" y="2420" width="10" height="10" stroke="none" fill="#ff0000"></rect>
			<rect x="100" y="2440" width="10" height="10" stroke="none" fill="#ff0000"></rect>
			<rect x="100" y="2460" width="10" height="10" stroke="none" fill="#ff0000"></rect>
			<rect x="100" y="2480" width="10" height="10" stroke="none" fill="#ff0000"></rect>
			<rect x="100" y="2500" width="10" height="10" stroke="none" fill="#ff0000"></rect>
			<rect x="100" y="2520" width="10" height="10" stroke="none" fill="#ff0000"></rect>
			<rect x="100" y="2540" width="10" height="10" stroke="none" fill="#ff0000"></rect>
			<rect x="100" y="2560" width="10" height="10" stroke="none" fill="#ff0000"></rect>
			<rect x="100" y="2580" width="10" height="10" stroke="none" fill="#ff0000"></rect>
			<rect x="100" y="2600" width="10" height="10" stroke="none" fill="#ff0000"></rect>
			<rect x="100" y="2620" width="10" height="10" stroke="none" fill="#ff0000"></rect>
			<rect x="100" y="2640" width="10" height="10" stroke="none" fill="#ff0000"></rect>
			<rect x="100" y="2660" width="10" height="10" stroke="none" fill="#ff0000"></rect>
			<rect x="100" y="2680" width="10" height="10" stroke="none" fill="#ff0000"></rect>
			<rect x="100" y="2700" width="10" height="10" stroke="none" fill="#ff0000"></rect>
			<rect x="100" y="2720" width="10" height="10" stroke="none" fill="#ff0000"></rect>
			<rect x="100" y="2740" width="10" height="10" stroke="none" fill="#ff0000"></rect>
			<rect x="100" y="2760" width="10" height="10" stroke="none" fill="#ff0000"></rect>
			<rect x="100" y="2780" width="10" height="10" stroke="none" fill="#ff0000"></rect>
			<rect x="100" y="2800" width="10" height="10" stroke="none" fill="#ff0000"></rect>
			<rect x="100" y="2820" width="10" height="10" stroke="none" fill="#ff0000"></rect>
			<rect x="100" y="2840" width="10" height="10" stroke="none" fill="#ff0000"></rect>
			<rect x="100" y="2860" width="10" height="10" stroke="none" fill="#ff0000"></rect>
			<rect x="100" y="2880" width="10" height="10" stroke="none" fill="#ff0000"></rect>
			<rect x="100" y="2900" width="10" height="10" stroke="none" fill="#ff0000"></rect>
			<rect x="100" y="2920" width="10" height="10" stroke="none" fill="#ff0000"></rect>
			<rect x="100" y="2940" width="10" height="10" stroke="none" fill="#ff0000"></rect>
			<rect x="100" y="2960" width="10" height="10" stroke="none" fill="#ff0000"></rect>
			<rect x="100" y="2980" width="10" height="10" stroke="none" fill="#ff0000"></rect>
			<rect x="100" y="3000" width="10" height="10" stroke="none" fill="#ff0000"></rect>
			<rect x="100" y="3020" width="10" height="10" stroke="none" fill="#ff0000"></rect>
			<rect x="100" y="3060" width="10" height="10" stroke="none" fill="#ff0000"></rect>
			<rect x="100" y="3040" width="10" height="10" stroke="none" fill="#ff0000"></rect>
			<rect x="100" y="3080" width="10" height="10" stroke="none" fill="#ff0000"></rect>
			<rect x="100" y="3100" width="10" height="10" stroke="none" fill="#ff0000"></rect>
			<rect x="100" y="3120" width="10" height="10" stroke="none" fill="#ff0000"></rect>
			<rect x="100" y="3140" width="10" height="10" stroke="none" fill="#ff0000"></rect>
			<rect x="100" y="3160" width="10" height="10" stroke="none" fill="#ff0000"></rect>
			<rect x="100" y="3180" width="10" height="10" stroke="none" fill="#ff0000"></rect>
			<rect x="100" y="3200" width="10" height="10" stroke="none" fill="#ff0000"></rect>
			<rect x="100" y="3220" width="10" height="10" stroke="none" fill="#ff0000"></rect>
			<rect x="100" y="3240" width="10" height="10" stroke="none" fill="#ff0000"></rect>
			<rect x="100" y="3260" width="10" height="10" stroke="none" fill="#ff0000"></rect>
		</g>
	</g>
</svg>